# xmcd CD database file
#
# Track frame offsets:
#	150
#	20955
#	39879
#	55541
#	71097
#	94559
#	115139
#	134837
#	155329
#	169400
#
# Disc length: 2527 seconds
#
# Revision: 0
# Processed by: cddbd v1.5.2PL0 Copyright (c) Steve Scherf et al.
# Submitted via: CDex 1.70beta2
#
DISCID=8609dd0a
DTITLE=La Big Band De Cuba - Musica Popular Cubana
DYEAR=2008
DGENRE=Salsa
TTITLE0=Son de la Madrugada
TTITLE1=Para Cochero
TTITLE2=Chan Chan
TTITLE3=Dos gardenias
TTITLE4=Jugadita de Engano
TTITLE5=Los tamalitos de Olga
TTITLE6=Procura
TTITLE7=El cuarto de Tula
TTITLE8=Enamorado
TTITLE9=Cuba
EXTD=YEAR: 2008
EXTT0=
EXTT1=
EXTT2=
EXTT3=
EXTT4=
EXTT5=
EXTT6=
EXTT7=
EXTT8=
EXTT9=
PLAYORDER=
